<?xml version="1.0" encoding="UTF-8" standalone="no"?>
<!-- Generator: Adobe Illustrator 16.0.0, SVG Export Plug-In . SVG Version: 6.00 Build 0)  -->

<svg
   version="1.1"
   id="Layer_1"
   x="0px"
   y="0px"
   width="256"
   height="256"
   viewBox="2.7 326.5 255.99999 256"
   enable-background="new 2.7 326.5 506.7 181"
   xml:space="preserve"
   sodipodi:docname="dinorunner.svg"
   inkscape:version="1.2.2 (b0a8486541, 2022-12-01)"
   inkscape:export-xdpi="40.5"
   inkscape:export-ydpi="40.5"
   inkscape:export-filename="../../icons/108x108/ru.arustg.dino.png"
   xmlns:inkscape="http://www.inkscape.org/namespaces/inkscape"
   xmlns:sodipodi="http://sodipodi.sourceforge.net/DTD/sodipodi-0.dtd"
   xmlns="http://www.w3.org/2000/svg"
   xmlns:svg="http://www.w3.org/2000/svg"
   xmlns:rdf="http://www.w3.org/1999/02/22-rdf-syntax-ns#"
   xmlns:cc="http://creativecommons.org/ns#"
   xmlns:dc="http://purl.org/dc/elements/1.1/"><rect
     style="display:inline;fill:#f5f5f5;stroke-width:0.932067"
     id="rect221"
     width="254.5"
     height="255"
     x="3.8000002"
     y="326.60001"
     ry="0"
     inkscape:export-filename="../../../../rect221.png"
     inkscape:export-xdpi="200"
     inkscape:export-ydpi="200" /><metadata
     id="metadata66"><rdf:RDF><cc:Work
         rdf:about=""><dc:format>image/svg+xml</dc:format><dc:type
           rdf:resource="http://purl.org/dc/dcmitype/StillImage" /></cc:Work></rdf:RDF></metadata><defs
     id="defs64" /><sodipodi:namedview
     pagecolor="#ffffff"
     bordercolor="#666666"
     borderopacity="1"
     objecttolerance="10"
     gridtolerance="10"
     guidetolerance="10"
     inkscape:pageopacity="0"
     inkscape:pageshadow="2"
     inkscape:window-width="1547"
     inkscape:window-height="1023"
     id="namedview62"
     showgrid="false"
     inkscape:snap-nodes="false"
     inkscape:zoom="2"
     inkscape:cx="104.5"
     inkscape:cy="170.5"
     inkscape:window-x="0"
     inkscape:window-y="0"
     inkscape:window-maximized="0"
     inkscape:current-layer="Layer_1"
     inkscape:showpageshadow="2"
     inkscape:pagecheckerboard="0"
     inkscape:deskcolor="#d1d1d1"><inkscape:grid
       type="xygrid"
       id="grid167" /></sodipodi:namedview><path
     style="fill:#666666;stroke-width:1.63576"
     d="m 27.588,523.09447 c 0,-0.91605 2.89172,-1.66554 6.42605,-1.66554 3.53433,0 6.42606,0.74949 6.42606,1.66554 0,0.91605 -2.89173,1.66554 -6.42606,1.66554 -3.53433,0 -6.42605,-0.74949 -6.42605,-1.66554 z m 44.98239,0 c 0,-0.91605 1.44586,-1.66554 3.21303,-1.66554 1.76716,0 3.21302,0.74949 3.21302,1.66554 0,0.91605 -1.44586,1.66554 -3.21302,1.66554 -1.76717,0 -3.21303,-0.74949 -3.21303,-1.66554 z m 19.22707,-12.07518 c -0.0571,-15.34274 -1.90615,-19.57011 -8.56021,-19.57011 -3.1698,0 -4.24081,-0.84127 -4.24081,-3.33109 0,-2.22071 -1.07101,-3.33108 -3.21302,-3.33108 -2.14202,0 -3.21303,-1.11037 -3.21303,-3.33109 0,-2.22071 -1.07101,-3.33108 -3.21303,-3.33108 -2.14202,0 -3.21303,-1.11037 -3.21303,-3.33108 0,-2.22072 -1.07101,-3.33109 -3.21303,-3.33109 -3.03452,0 -3.21302,-1.11036 -3.21302,-19.9865 0,-18.87614 0.1785,-19.9865 3.21302,-19.9865 2.67753,0 3.21303,1.11036 3.21303,6.66217 0,5.5518 0.53551,6.66217 3.21303,6.66217 2.14202,0 3.21303,1.11036 3.21303,3.33108 0,2.22072 1.07101,3.33108 3.21303,3.33108 2.14201,0 3.21302,1.11037 3.21302,3.33109 0,2.77591 1.07101,3.33108 6.42606,3.33108 5.35505,0 6.42606,-0.55517 6.42606,-3.33108 0,-2.22072 1.07101,-3.33109 3.21302,-3.33109 2.14202,0 3.21303,-1.11036 3.21303,-3.33108 0,-2.59084 1.07101,-3.33108 4.81954,-3.33108 3.74854,0 4.81954,-0.74024 4.81954,-3.33109 0,-2.59084 1.07101,-3.33108 4.81955,-3.33108 3.74853,0 4.81954,-0.74024 4.81954,-3.33108 0,-2.22073 1.07101,-3.33109 3.21303,-3.33109 3.04825,0 3.21302,-1.11036 3.21302,-21.65204 0,-20.54168 0.16477,-21.65204 3.21303,-21.65204 2.14202,0 3.21303,-1.11036 3.21303,-3.33109 0,-3.19228 1.07101,-3.33108 25.70422,-3.33108 24.63322,0 25.70423,0.13879 25.70423,3.33108 0,2.22073 1.07101,3.33109 3.21302,3.33109 2.97503,0 3.21303,1.11036 3.21303,14.98987 v 14.98988 h -16.06514 c -14.99413,0 -16.06514,0.22207 -16.06514,3.33108 0,2.96097 1.07101,3.33109 9.63909,3.33109 8.56807,0 9.63908,0.37012 9.63908,3.33108 0,3.05349 -1.07101,3.33108 -12.85211,3.33108 h -12.85211 v 6.66217 6.66217 h 6.42605 6.42606 v 6.66216 c 0,5.5518 -0.5355,6.66217 -3.21303,6.66217 -2.14202,0 -3.21303,-1.11037 -3.21303,-3.33108 0,-2.22072 -1.07101,-3.33109 -3.21302,-3.33109 -2.90703,0 -3.21303,1.11037 -3.21303,11.6588 0,10.54842 -0.306,11.65879 -3.21303,11.65879 -2.49902,0 -3.21303,1.11036 -3.21303,4.99662 0,3.88626 -0.714,4.99663 -3.21303,4.99663 -2.14201,0 -3.21302,1.11037 -3.21302,3.33108 0,2.22072 -1.07101,3.33109 -3.21303,3.33109 -2.94528,0 -3.21303,1.11036 -3.21303,13.32433 0,12.21397 0.26775,13.32433 3.21303,13.32433 2.14202,0 3.21303,1.11037 3.21303,3.33109 0,2.7759 -1.07101,3.33108 -6.42606,3.33108 h -6.42606 v -9.99325 c 0,-8.88288 -0.357,-9.99325 -3.21302,-9.99325 -2.14202,0 -3.21303,-1.11037 -3.21303,-3.33108 0,-2.22072 -1.07101,-3.33109 -3.21303,-3.33109 -2.14202,0 -3.21303,1.11037 -3.21303,3.33109 0,2.22071 -1.07101,3.33108 -3.21303,3.33108 -2.14201,0 -3.21302,1.11037 -3.21302,3.33108 0,2.22072 -1.07101,3.33109 -3.21303,3.33109 -2.14202,0 -3.21303,1.11036 -3.21303,3.33108 0,2.22072 1.07101,3.33108 3.21303,3.33108 2.14202,0 3.21303,1.11037 3.21303,3.33109 0,2.7759 -1.07101,3.33108 -6.42606,3.33108 h -6.42606 l -0.0511,-13.74072 z M 143.257,394.84775 c 0,-2.22072 -1.07101,-3.33108 -3.21303,-3.33108 -2.14201,0 -3.21302,1.11036 -3.21302,3.33108 0,2.22073 1.07101,3.33109 3.21302,3.33109 2.14202,0 3.21303,-1.11036 3.21303,-3.33109 z m 38.55634,128.24672 c 0,-0.91605 2.89172,-1.66554 6.42605,-1.66554 3.53433,0 6.42606,0.74949 6.42606,1.66554 0,0.91605 -2.89173,1.66554 -6.42606,1.66554 -3.53433,0 -6.42605,-0.74949 -6.42605,-1.66554 z m -22.4912,-3.33109 c 0,-0.91604 0.72293,-1.66554 1.60652,-1.66554 0.88358,0 1.60651,0.7495 1.60651,1.66554 0,0.91605 -0.72293,1.66555 -1.60651,1.66555 -0.88359,0 -1.60652,-0.7495 -1.60652,-1.66555 z M 46.86616,513.10122 c 0,-0.91605 2.89173,-1.66554 6.42606,-1.66554 3.53433,0 6.42606,0.74949 6.42606,1.66554 0,0.91605 -2.89173,1.66554 -6.42606,1.66554 -3.53433,0 -6.42606,-0.74949 -6.42606,-1.66554 z m 157.43837,-3.33109 c 0,-0.91604 2.1688,-1.66554 4.81954,-1.66554 2.65075,0 4.81955,0.7495 4.81955,1.66554 0,0.91605 -2.1688,1.66555 -4.81955,1.66555 -2.65074,0 -4.81954,-0.7495 -4.81954,-1.66555 z M 27.588,499.77688 c 0,-1.04096 9.63908,-1.66554 25.70422,-1.66554 16.06514,0 25.70422,0.62458 25.70422,1.66554 0,1.04097 -9.63908,1.66555 -25.70422,1.66555 -16.06514,0 -25.70422,-0.62458 -25.70422,-1.66555 z m 115.669,0 c 0,-1.07071 16.06514,-1.66554 44.98239,-1.66554 28.91725,0 44.98239,0.59483 44.98239,1.66554 0,1.07071 -16.06514,1.66555 -44.98239,1.66555 -28.91725,0 -44.98239,-0.59484 -44.98239,-1.66555 z"
     id="path337" /></svg>
